<svg width="14" height="19" viewBox="0 0 14 19" fill="none" xmlns="http://www.w3.org/2000/svg">
<path d="M0 19C0 17.0803 0.737498 15.2393 2.05025 13.8819C3.36301 12.5245 5.14348 11.7619 7 11.7619C8.85652 11.7619 10.637 12.5245 11.9497 13.8819C13.2625 15.2393 14 17.0803 14 19H12.25C12.25 17.5603 11.6969 16.1795 10.7123 15.1614C9.72775 14.1434 8.39239 13.5714 7 13.5714C5.60761 13.5714 4.27226 14.1434 3.28769 15.1614C2.30312 16.1795 1.75 17.5603 1.75 19H0ZM7 10.8571C4.09937 10.8571 1.75 8.42786 1.75 5.42857C1.75 2.42929 4.09937 0 7 0C9.90063 0 12.25 2.42929 12.25 5.42857C12.25 8.42786 9.90063 10.8571 7 10.8571ZM7 9.04762C8.93375 9.04762 10.5 7.4281 10.5 5.42857C10.5 3.42905 8.93375 1.80952 7 1.80952C5.06625 1.80952 3.5 3.42905 3.5 5.42857C3.5 7.4281 5.06625 9.04762 7 9.04762Z" fill="black"/>
</svg>
